<?xml version="1.0" standalone="no"?>
<!DOCTYPE svg PUBLIC "-//W3C//DTD SVG 20010904//EN"
 "http://www.w3.org/TR/2001/REC-SVG-20010904/DTD/svg10.dtd">
<svg version="1.0" xmlns="http://www.w3.org/2000/svg"
 width="512.000000pt" height="512.000000pt" viewBox="0 0 512.000000 512.000000"
 preserveAspectRatio="xMidYMid meet">

<g transform="translate(0.000000,512.000000) scale(0.100000,-0.100000)"
fill="#000000" stroke="none">
<path d="M1760 5110 c-606 -74 -1121 -407 -1431 -925 -105 -176 -194 -416
-236 -639 -25 -129 -25 -513 0 -642 161 -851 827 -1471 1679 -1563 353 -39
738 34 1058 200 l75 39 750 -749 c461 -460 767 -758 795 -774 206 -117 458
-40 562 171 31 62 33 73 33 172 0 179 59 107 -797 966 l-750 751 55 84 c143
219 241 481 283 749 22 139 22 409 0 550 -109 704 -588 1282 -1255 1515 -89
32 -205 61 -316 80 -107 19 -400 28 -505 15z m532 -289 c296 -64 569 -208 785
-415 259 -247 415 -530 485 -878 32 -161 33 -443 0 -603 -51 -257 -151 -480
-309 -691 -55 -74 -70 -114 -59 -161 5 -19 251 -272 786 -808 761 -762 810
-814 810 -871 0 -31 -34 -87 -64 -105 -37 -23 -97 -25 -134 -5 -15 8 -376 364
-802 791 -426 427 -787 783 -802 791 -46 24 -97 17 -163 -22 -166 -101 -355
-176 -539 -216 -88 -19 -130 -22 -326 -22 -195 0 -238 3 -323 22 -512 114
-923 436 -1143 896 -92 192 -134 347 -155 575 -13 141 -2 311 31 468 131 623
643 1129 1267 1253 146 29 142 28 358 25 156 -3 221 -8 297 -24z"/>
<path d="M1800 4579 c-298 -37 -566 -167 -787 -382 -202 -196 -328 -425 -389
-707 -26 -120 -26 -410 0 -530 121 -556 538 -967 1093 -1077 131 -25 376 -23
510 5 428 91 763 349 956 737 93 186 137 380 137 600 0 220 -44 414 -137 600
-193 388 -533 649 -954 735 -117 24 -320 33 -429 19z m435 -293 c300 -78 560
-286 702 -561 83 -163 117 -307 117 -500 0 -193 -34 -337 -117 -500 -142 -275
-398 -480 -702 -562 -91 -25 -116 -27 -275 -27 -157 0 -185 3 -272 27 -311 83
-564 289 -704 572 -66 135 -102 257 -113 389 -49 569 335 1075 896 1181 122
23 341 14 468 -19z"/>
</g>
</svg>
